# xmcd CD database file
# Copyright (C) 1997 Ti Kan
# 
# Track frame offsets:
#     150
#     16620
#     31655
#     47857
#     64925
#     80350
#     92620
#     103990
#     120492
#     137012
#     152607
#     163037
#     178305
# 
# Disc length: 2591 seconds
# 
# Revision: 1
# Processed by: cddbd v1.4b41PL1 Copyright (c) Steve Scherf et al.
# Submitted via: DiscPlay 4.0.4
# 
DISCID=9f0a1d0d
DTITLE=Prescott Brown - Already Restless
DYEAR=1900
DGENRE=
TTITLE0=Thirty Nine Days
TTITLE1=Broken String Of Pearls
TTITLE2=Heart Of Gold
TTITLE3=Already Restless
TTITLE4=If He's Ever Near
TTITLE5=There Ain't Much You Can Do About Love
TTITLE6=Talkin' Love
TTITLE7=Happy Ever After
TTITLE8=Nothing A Little Love Can't Take Care Of
TTITLE9=The Heart Of Love
TTITLE10=New Year's Eve 1999
TTITLE11=There You Go
TTITLE12=All Or Nothin'
EXTD=
EXTT0=
EXTT1=
EXTT2=
EXTT3=
EXTT4=
EXTT5=
EXTT6=
EXTT7=
EXTT8=
EXTT9=
EXTT10=
EXTT11=
EXTT12=
PLAYORDER=
